<?xml version="1.0" standalone="no"?>
<!DOCTYPE svg PUBLIC "-//W3C//DTD SVG 20010904//EN"
 "http://www.w3.org/TR/2001/REC-SVG-20010904/DTD/svg10.dtd">
<svg version="1.0" xmlns="http://www.w3.org/2000/svg"
 width="1024.000000pt" height="1024.000000pt" viewBox="0 0 1024.000000 1024.000000"
 preserveAspectRatio="xMidYMid meet">
<metadata>
Created by potrace 1.14, written by Peter Selinger 2001-2017
</metadata>
<g transform="translate(0.000000,1024.000000) scale(0.100000,-0.100000)"
fill="#000000" stroke="none">
<path d="M4224 8864 c3 -6 -12 -10 -40 -10 -28 0 -49 -6 -54 -14 -5 -8 -12
-11 -16 -8 -3 4 -13 1 -21 -5 -28 -22 -118 -118 -115 -123 1 -2 -8 -15 -20
-29 -38 -40 -48 -54 -48 -64 0 -6 -7 -14 -16 -19 -9 -5 -15 -11 -14 -13 4 -8
-23 -59 -32 -59 -4 0 -7 -3 -6 -7 3 -14 -25 -63 -35 -63 -6 0 -8 -3 -5 -6 4
-3 -5 -30 -18 -60 -13 -30 -22 -54 -19 -54 2 0 0 -11 -5 -24 -6 -16 -5 -28 3
-36 9 -10 9 -11 0 -6 -8 4 -13 2 -14 -6 0 -7 -1 -44 -3 -83 -1 -48 -6 -69 -14
-68 -7 2 -12 -4 -12 -12 0 -8 -3 -14 -7 -13 -15 5 -102 -45 -96 -55 4 -6 1 -7
-7 -2 -7 4 -15 4 -19 -1 -3 -5 -27 -19 -52 -32 -26 -12 -52 -29 -59 -37 -7 -8
-18 -15 -26 -15 -7 0 -19 -8 -26 -19 -7 -10 -17 -19 -23 -20 -5 0 -21 -9 -35
-19 -14 -11 -29 -21 -35 -23 -5 -2 -22 -16 -37 -31 -15 -15 -32 -28 -38 -28
-5 0 -10 -5 -10 -12 0 -6 -3 -9 -6 -5 -3 3 -23 -12 -44 -33 -21 -21 -41 -36
-44 -32 -3 3 -6 0 -6 -6 0 -6 -12 -18 -27 -26 -16 -8 -25 -15 -20 -16 9 0 -30
-40 -40 -40 -10 0 -171 -168 -204 -214 -16 -21 -29 -35 -29 -31 0 7 -11 -6
-52 -60 -5 -5 -24 -28 -43 -50 -19 -22 -35 -43 -35 -47 0 -5 -8 -16 -17 -26
-10 -10 -22 -26 -28 -34 -5 -9 -31 -48 -58 -87 -26 -39 -64 -102 -85 -139 -21
-37 -45 -78 -53 -92 -8 -14 -20 -33 -28 -42 -8 -10 -11 -18 -7 -18 5 0 -4 -20
-19 -45 -14 -25 -23 -50 -20 -55 4 -6 1 -9 -6 -8 -7 2 -13 -1 -14 -7 -2 -27
-28 -85 -37 -85 -6 0 -8 -3 -5 -7 4 -3 2 -12 -4 -20 -6 -7 -8 -13 -4 -13 4 0
2 -7 -5 -15 -7 -8 -9 -15 -5 -15 4 0 3 -6 -3 -12 -15 -19 -60 -155 -65 -198
-1 -8 -5 -18 -10 -21 -4 -3 -9 -20 -10 -37 -1 -18 -6 -32 -11 -32 -5 0 -6 -3
-3 -7 4 -3 2 -12 -4 -20 -6 -7 -9 -13 -6 -13 3 0 -1 -27 -9 -60 -7 -33 -15
-73 -16 -90 -1 -16 -5 -30 -8 -30 -3 0 -5 -12 -5 -27 1 -16 -1 -32 -4 -37 -2
-6 -5 -19 -7 -30 -8 -94 -17 -210 -18 -251 -1 -28 -5 -56 -9 -62 -4 -6 -3 -14
3 -18 6 -4 7 -13 1 -23 -11 -21 -11 -31 0 -59 5 -13 5 -23 0 -23 -11 0 -8 -41
4 -60 6 -9 4 -11 -5 -5 -9 5 -11 4 -6 -4 4 -6 9 -58 12 -114 2 -56 6 -118 8
-137 3 -19 8 -64 11 -100 7 -72 13 -115 15 -115 2 0 6 -19 14 -65 3 -19 10
-50 15 -68 5 -18 10 -35 10 -37 1 -3 1 -6 2 -7 1 -2 2 -16 4 -31 1 -16 6 -32
11 -35 5 -4 10 -20 12 -37 1 -16 5 -37 9 -45 3 -8 8 -26 10 -40 2 -13 8 -29
12 -35 10 -12 36 -107 33 -117 -1 -5 3 -8 8 -8 6 0 10 -9 10 -20 0 -11 5 -20
10 -20 6 0 10 -9 10 -20 0 -20 44 -124 81 -192 11 -21 17 -38 12 -38 -4 0 -2
-4 5 -9 7 -4 14 -16 16 -25 1 -10 8 -21 15 -25 7 -5 12 -11 11 -15 -2 -11 24
-66 32 -66 5 0 8 -5 8 -11 0 -6 13 -30 30 -54 17 -24 30 -48 30 -54 0 -6 4
-11 9 -11 11 0 19 -30 14 -48 -3 -6 -9 -10 -14 -7 -16 11 -79 13 -85 4 -3 -5
-11 -6 -17 -2 -16 10 -57 11 -84 1 -12 -4 -24 -4 -27 0 -6 10 -79 8 -95 -2 -6
-4 -11 -3 -11 1 0 10 -72 9 -88 -1 -7 -4 -18 -4 -24 1 -15 8 -99 9 -121 0 -8
-3 -18 -3 -21 0 -13 13 -361 -3 -361 -16 0 -4 -38 -12 -57 -14 -9 -1 -15 -4
-13 -7 2 -3 -10 -12 -27 -19 -47 -21 -154 -133 -143 -151 3 -4 1 -10 -5 -12
-6 -2 -12 -12 -15 -23 -2 -11 -8 -35 -14 -54 -6 -18 -10 -36 -9 -40 0 -3 0 -8
-2 -11 -1 -3 -3 -17 -5 -33 -3 -19 0 -25 8 -20 7 4 7 1 -1 -10 -11 -13 -13
-112 -12 -504 1 -579 1 -553 9 -553 4 0 7 -16 8 -35 1 -20 7 -43 15 -52 8 -11
9 -14 1 -10 -9 6 -9 2 0 -15 49 -90 102 -152 155 -179 15 -8 29 -17 32 -20 3
-4 14 -9 25 -11 11 -1 22 -6 25 -10 3 -4 19 -10 35 -13 46 -9 49 -10 60 -16 6
-3 34 -5 63 -5 28 1 52 -3 52 -7 0 -4 9 -3 19 3 12 6 22 6 25 1 3 -5 21 -5 41
-1 19 4 35 5 35 1 0 -3 20 -6 44 -6 24 0 42 3 39 8 -2 4 1 7 6 7 6 0 11 -5 11
-10 0 -7 6 -7 19 -1 10 6 21 8 24 5 9 -9 68 -11 73 -2 3 4 14 3 25 -2 10 -6
19 -7 19 -3 0 4 26 8 58 8 66 -1 103 5 98 14 -2 3 10 7 27 7 16 1 35 8 41 15
6 8 22 13 35 11 16 -3 21 0 16 9 -6 9 -4 10 6 3 20 -13 250 -14 242 -1 -4 6
-1 7 8 1 21 -13 119 -14 119 0 0 7 3 8 8 1 9 -13 343 -14 335 -1 -4 5 0 6 8 0
20 -12 87 -15 95 -3 3 5 11 6 17 2 17 -11 726 -10 720 1 -4 5 0 6 8 0 21 -13
103 -13 111 0 5 7 8 7 8 0 0 -12 118 -14 136 -2 6 4 14 4 18 0 10 -10 126 -9
126 1 0 4 6 5 13 0 16 -10 137 -10 144 0 2 4 10 4 16 0 18 -11 36 -12 43 -2 3
5 11 6 17 2 17 -11 247 -10 247 1 0 5 6 4 13 -1 14 -11 76 -11 94 0 6 4 14 3
17 -1 6 -10 48 -8 65 3 6 3 11 3 11 -2 0 -4 32 -8 70 -8 39 0 70 3 70 8 0 4 8
4 18 0 21 -10 53 -10 70 0 6 5 12 4 12 0 0 -13 93 -10 103 2 5 7 10 7 15 0 8
-11 132 -14 132 -3 0 4 11 3 24 -2 15 -5 27 -5 35 3 6 6 11 7 11 1 0 -12 123
-12 132 1 5 6 8 4 8 -5 0 -13 1 -13 10 0 5 8 10 11 10 5 0 -5 25 -10 55 -10
30 0 55 4 55 9 0 6 5 5 12 -2 7 -7 17 -8 29 -2 11 6 20 6 23 1 6 -9 80 -6 97
4 5 4 9 2 9 -2 0 -10 111 -10 126 0 6 3 14 3 18 0 11 -11 46 -10 46 1 0 7 3 7
8 1 8 -12 72 -13 90 -2 6 5 12 4 12 0 0 -5 27 -8 60 -8 33 0 60 4 60 8 0 4 8
4 18 0 21 -10 53 -10 70 0 6 5 12 4 12 0 0 -10 131 -10 148 1 7 4 12 2 12 -3
0 -13 22 -10 32 4 5 6 8 6 8 -2 0 -11 24 -12 36 -1 3 4 16 3 29 -2 25 -9 44
-8 63 3 6 5 12 4 12 -1 0 -5 24 -8 53 -7 90 3 83 18 84 -198 0 -133 5 -201 13
-222 8 -16 14 -32 15 -35 9 -36 70 -108 88 -102 4 1 7 -3 7 -9 0 -5 4 -7 10
-4 5 3 10 1 10 -5 0 -6 4 -9 9 -5 5 3 13 0 16 -6 4 -5 13 -8 21 -5 7 3 15 2
18 -3 5 -7 120 -13 331 -15 67 0 123 -5 127 -11 5 -7 8 -7 8 0 0 9 262 13 295
5 6 -1 15 -1 20 0 9 3 123 8 218 10 24 1 35 5 31 12 -4 7 -2 8 4 4 6 -4 27 0
47 8 19 8 35 13 35 10 0 -3 17 12 39 34 60 64 75 103 78 212 1 52 3 95 3 95 0
0 2 53 3 118 1 73 -2 117 -8 117 -5 0 -4 4 4 9 7 5 10 14 7 20 -7 11 1 13 57
13 15 1 27 4 27 9 0 5 7 6 15 3 8 -3 20 -2 27 2 7 5 19 9 27 11 8 1 17 5 20
10 3 4 13 9 21 11 25 6 78 51 85 72 3 11 11 20 17 20 6 0 9 3 6 6 -4 3 -2 20
4 37 6 18 12 122 14 232 2 110 4 211 5 225 1 14 0 27 -1 30 -6 19 -3 370 3
370 5 0 5 4 2 10 -3 5 -6 121 -7 257 -1 136 -6 264 -10 283 -5 19 -10 41 -10
48 -1 6 -5 12 -10 12 -5 0 -7 4 -3 9 5 9 -48 68 -86 97 -13 10 -48 22 -89 30
-20 5 -309 5 -340 1 -39 -6 -74 -19 -82 -30 -5 -8 -240 -19 -373 -17 -5 0 -55
1 -110 3 -55 1 -106 -1 -112 -6 -9 -6 -13 -5 -13 2 0 7 -4 10 -9 7 -16 -10 -6
28 12 46 10 10 15 23 12 28 -4 6 -2 10 3 10 5 0 17 16 28 35 10 19 22 35 26
35 5 0 8 8 8 19 0 10 7 24 15 31 8 7 15 17 15 22 0 6 10 24 22 41 12 17 16 27
7 22 -9 -5 -8 -1 4 12 9 11 17 24 17 30 0 6 7 16 15 23 8 7 12 16 9 21 -2 5 2
20 11 33 9 14 14 30 10 36 -3 5 -2 10 4 10 10 0 27 38 23 53 -1 4 2 7 6 7 4 0
14 21 21 47 8 27 18 54 24 61 5 6 6 12 2 12 -4 0 -2 7 5 15 7 8 10 22 6 30 -3
9 -2 13 4 10 6 -3 11 1 11 9 2 17 5 33 9 41 1 3 3 8 4 13 1 4 4 12 7 17 4 6 5
20 4 33 -1 12 2 22 7 22 5 0 7 4 3 9 -3 5 1 16 9 24 9 8 11 19 6 28 -5 7 -6
16 -2 19 12 9 31 71 20 64 -6 -4 -5 3 2 15 6 12 13 38 15 59 2 20 4 37 5 37 4
0 12 54 13 87 1 21 5 38 8 38 3 0 7 15 7 33 1 17 5 52 8 77 3 25 7 115 10 200
2 85 6 160 9 167 2 7 1 14 -3 17 -4 2 -7 27 -6 55 0 28 -2 51 -5 51 -3 0 -6
38 -6 85 0 47 -3 85 -7 85 -3 0 -4 9 -1 20 3 13 0 20 -8 20 -11 0 -11 2 0 9
12 8 12 12 2 25 -11 12 -11 16 -1 16 9 0 9 4 2 13 -6 7 -12 38 -14 70 -2 31
-6 57 -9 57 -3 0 -6 6 -7 13 0 6 -3 23 -7 37 -3 14 -8 36 -10 50 -5 29 -24
108 -33 130 -3 8 -6 17 -7 20 0 3 -9 32 -20 65 -10 33 -19 62 -20 65 0 3 -6
15 -13 28 -7 12 -10 22 -6 22 3 0 -1 11 -10 25 -9 14 -14 25 -11 25 8 0 -57
160 -85 212 -6 10 -10 24 -10 32 0 8 -8 19 -17 25 -10 5 -17 11 -15 13 6 6
-20 68 -29 68 -5 0 -9 9 -9 20 0 11 -4 20 -10 20 -5 0 -10 7 -10 15 0 8 -5 15
-12 15 -6 0 -9 3 -5 6 6 6 -50 104 -66 115 -5 3 -9 10 -9 15 -1 13 -50 88 -59
92 -5 2 -9 9 -9 16 0 7 -9 21 -20 31 -11 10 -20 23 -20 29 0 7 -9 18 -20 26
-11 8 -20 18 -20 23 0 14 -27 36 -35 29 -5 -4 -5 -2 -2 4 6 11 -28 54 -120
152 -24 25 -43 49 -43 54 0 4 -7 8 -16 8 -8 0 -13 4 -10 8 2 4 -8 18 -24 30
-15 13 -53 47 -83 77 -30 30 -57 51 -61 48 -3 -4 -6 2 -6 11 0 12 -5 16 -15
12 -9 -3 -15 0 -15 9 0 8 -5 15 -11 15 -7 0 -22 11 -35 25 -13 14 -27 25 -31
25 -5 0 -15 9 -23 20 -8 11 -20 20 -26 20 -14 0 -37 58 -28 71 3 5 1 9 -3 9
-5 0 -14 19 -21 43 -11 38 -41 77 -58 77 -9 0 -49 45 -53 60 -2 8 -3 25 -3 38
0 13 -7 26 -14 29 -8 3 -12 9 -9 13 3 4 -3 25 -12 46 -9 22 -17 41 -18 44 -6
25 -51 110 -57 110 -5 0 -6 5 -3 10 3 6 1 10 -4 10 -6 0 -18 18 -27 40 -9 22
-24 46 -33 53 -9 6 -22 24 -30 39 -8 15 -17 25 -21 23 -4 -3 -10 5 -13 16 -4
13 -10 18 -18 13 -7 -4 -10 -3 -6 3 14 22 -112 107 -175 117 -15 3 -32 7 -38
11 -5 3 -10 1 -10 -6 0 -9 -3 -9 -14 0 -9 8 -16 8 -20 2 -4 -5 -15 -8 -26 -6
-11 2 -22 0 -25 -6 -4 -5 -14 -9 -23 -9 -18 0 -144 -59 -127 -60 9 0 -69 -46
-125 -73 -14 -6 -28 -16 -32 -22 -5 -6 -8 -4 -8 5 0 9 -3 11 -8 5 -10 -14 -55
-39 -47 -26 7 12 -8 15 -19 4 -3 -4 -12 -8 -19 -9 -11 -2 -31 -6 -84 -18 -12
-2 -32 -10 -45 -17 -13 -7 -27 -12 -31 -11 -10 3 -38 -24 -31 -30 5 -6 -61 -3
-151 6 -33 4 -82 8 -108 10 -26 2 -51 6 -54 9 -3 3 -15 2 -28 -3 -13 -5 -25
-6 -29 -3 -3 3 -38 8 -78 10 -93 6 -97 5 -130 -1 -15 -2 -30 0 -34 5 -3 5 -10
6 -16 3 -17 -11 -78 -12 -78 -1 0 6 -5 6 -12 0 -7 -5 -33 -10 -58 -11 -72 -3
-184 -14 -193 -19 -4 -3 -14 1 -22 7 -11 9 -15 9 -15 1 0 -12 -57 -15 -84 -5
-9 3 -16 14 -16 23 0 9 -6 23 -12 29 -7 7 -13 18 -13 25 -2 31 -18 86 -24 83
-4 -3 -8 6 -9 20 -5 54 -7 64 -12 64 -4 0 -12 16 -20 35 -8 19 -18 35 -22 35
-5 0 -7 4 -4 9 8 13 -68 91 -88 91 -9 0 -16 5 -16 11 0 6 -6 9 -12 6 -7 -2
-19 3 -26 12 -8 9 -11 11 -8 5z"/>
</g>
</svg>
